<?xml version="1.0" encoding="utf-8"?>
<!-- Generator: Adobe Illustrator 23.0.4, SVG Export Plug-In . SVG Version: 6.00 Build 0)  -->
<svg version="1.1" id="Capa_1" zoomAndPan="disable"
	 xmlns="http://www.w3.org/2000/svg" xmlns:xlink="http://www.w3.org/1999/xlink" x="0px" y="0px" viewBox="0 0 30 30"
	 style="enable-background:new 0 0 30 30;" xml:space="preserve">
<style type="text/css">
	.st0{fill:#FF6562;}
</style>
<g>
	<path class="st0" d="M15,29.5c-0.4,0-0.8-0.1-1.1-0.4l-13-13c-0.6-0.6-0.6-1.5,0-2.1c0.6-0.6,1.5-0.6,2.1,0L15,25.9l11.9-11.9
		c0.6-0.6,1.5-0.6,2.1,0c0.6,0.6,0.6,1.5,0,2.1l-13,13C15.8,29.4,15.4,29.5,15,29.5z"/>
</g>
<g>
	<path class="st0" d="M15,29.5c-0.8,0-1.5-0.7-1.5-1.5V2c0-0.8,0.7-1.5,1.5-1.5s1.5,0.7,1.5,1.5v26C16.5,28.8,15.8,29.5,15,29.5z"/>
</g>
</svg>
